<?xml version="1.0" encoding="utf-8"?>
<!-- Generator: Adobe Illustrator 27.5.0, SVG Export Plug-In . SVG Version: 6.00 Build 0)  -->
<svg version="1.1" xmlns="http://www.w3.org/2000/svg" xmlns:xlink="http://www.w3.org/1999/xlink" x="0px" y="0px"
	 viewBox="0 0 500 500" style="enable-background:new 0 0 500 500;" xml:space="preserve">
<g id="BACKGROUND">
	<rect id="XMLID_3722_" style="fill:#E9E8FF;" width="500" height="500"/>
</g>
<g id="OBJECTS">
	<g>
		<path id="XMLID_4607_" style="opacity:0.3;fill:#7974F0;" d="M251.128,393.785L64.742,286.174
			c-4.887-2.821-4.268-7.795,1.374-11.053l183.636-106.022c5.643-3.258,14.258-3.615,19.145-0.794l186.386,107.61
			c4.887,2.821,4.268,7.795-1.375,11.053L270.273,392.991C264.63,396.249,256.015,396.606,251.128,393.785z"/>
		<path id="XMLID_4604_" style="opacity:0.3;fill:#7974F0;" d="M166.139,383.542c-0.24,2.678-2.298,5.449-6.076,7.628
			l-44.283,25.569c-7.362,4.25-18.607,4.717-24.989,1.033l-47.867-27.634c-2.891-1.665-4.304-3.911-4.304-6.262
			c0-2.378,1.446-4.863,4.284-6.969c0.553-0.42,1.153-0.82,1.812-1.199l44.283-25.562c7.368-4.257,18.614-4.724,24.989-1.039
			l47.827,27.614l0.047,0.027c2.658,1.539,4.071,3.564,4.277,5.716C166.172,382.815,166.172,383.175,166.139,383.542z"/>
		<path id="XMLID_3852_" style="opacity:0.3;fill:#7974F0;" d="M398.645,348.624l-26.595-15.355
			c-3.544-2.046-3.095-5.653,0.997-8.015l24.602-14.204c4.092-2.362,10.339-2.621,13.883-0.575l26.595,15.355
			c3.544,2.046,3.095,5.653-0.997,8.015l-24.602,14.204C408.436,350.411,402.189,350.67,398.645,348.624z"/>
		<path id="XMLID_3308_" style="opacity:0.3;fill:#7974F0;" d="M362.151,382.362l-17.714-10.227
			c-2.36-1.363-2.062-3.765,0.664-5.339l16.386-9.46c2.725-1.574,6.886-1.746,9.247-0.383l17.714,10.227
			c2.36,1.363,2.061,3.765-0.664,5.339l-16.386,9.46C368.672,383.552,364.511,383.724,362.151,382.362z"/>
		<g id="XMLID_124_">
			<path id="XMLID_127_" style="fill:#0090E4;" d="M458.58,242.668l-31.506,0l-158.177-91.324
				c-4.887-2.821-13.502-2.464-19.145,0.794L92.95,242.667H61.461v21.416h0.01c-0.141,1.92,0.923,3.774,3.271,5.129l186.386,107.61
				c4.887,2.821,13.502,2.464,19.145-0.794l183.636-106.022c2.931-1.692,4.494-3.847,4.646-5.924h0.026V242.668z"/>
			<path id="XMLID_125_" style="fill:#00AEE6;" d="M251.128,355.407L64.742,247.797c-4.887-2.821-4.268-7.795,1.375-11.053
				l183.636-106.022c5.643-3.258,14.258-3.615,19.145-0.794l186.386,107.61c4.887,2.821,4.268,7.795-1.375,11.053L270.273,354.613
				C264.63,357.871,256.015,358.228,251.128,355.407z"/>
		</g>
		<g id="XMLID_121_">
			<path id="XMLID_123_" style="fill:#423EAD;" d="M166.139,344.085v12.711c0.013,0.167,0.007,0.333,0,0.5v0.293h-0.007
				c-0.2,2.711-2.238,5.523-6.069,7.735l-44.283,25.569c-7.362,4.25-18.607,4.717-24.989,1.033l-47.867-27.641
				c-3.064-1.766-4.457-4.184-4.27-6.695H38.62v-12.092c0-2.378,1.446-4.863,4.284-6.968l21.492-0.033l24.603-14.203
				c7.368-4.25,18.614-4.717,24.989-1.033l26.189,15.116l21.638-0.033l0.047,0.027C164.52,339.908,165.933,341.933,166.139,344.085z
				"/>
			<path id="XMLID_122_" style="fill:#FFFFFF;" d="M166.139,345.164c-0.24,2.678-2.298,5.449-6.076,7.628l-44.283,25.569
				c-7.362,4.25-18.607,4.717-24.989,1.033l-47.867-27.634c-2.891-1.665-4.304-3.911-4.304-6.262c0-2.378,1.446-4.863,4.284-6.968
				c0.553-0.42,1.153-0.819,1.812-1.199l44.283-25.562c7.368-4.257,18.614-4.723,24.989-1.039l47.827,27.614l0.047,0.027
				c2.658,1.539,4.07,3.564,4.277,5.716C166.172,344.438,166.172,344.797,166.139,345.164z"/>
		</g>
		<g id="XMLID_118_">
			<path id="XMLID_120_" style="fill:#423EAD;" d="M440.505,301.705c0.002-0.093,0.006-0.186,0-0.279v-10.255l-14.426,0.023
				l-14.548-8.399c-3.544-2.046-9.791-1.787-13.883,0.575l-13.668,7.891l-14.321,0.023v10.585h0.018
				c-0.102,1.393,0.669,2.737,2.372,3.72l26.595,15.355c3.544,2.046,9.791,1.787,13.883-0.576l24.602-14.204
				c2.126-1.227,3.259-2.79,3.369-4.295h0.007V301.705z"/>
			<path id="XMLID_119_" style="fill:#FFFFFF;" d="M398.645,310.246l-26.595-15.355c-3.544-2.046-3.095-5.653,0.997-8.015
				l24.602-14.204c4.092-2.362,10.339-2.621,13.883-0.576l26.595,15.355c3.544,2.046,3.095,5.653-0.997,8.015l-24.602,14.204
				C408.436,312.033,402.189,312.292,398.645,310.246z"/>
		</g>
		<g id="XMLID_114_">
			<path id="XMLID_117_" style="fill:#423EAD;" d="M390.032,338.296c0.001-0.062,0.004-0.124,0-0.186v-6.83l-9.609,0.015
				l-9.69-5.595c-2.36-1.363-6.521-1.19-9.247,0.383l-9.104,5.256l-9.539,0.015l0,7.05h0.012c-0.068,0.928,0.446,1.823,1.58,2.478
				l17.714,10.227c2.36,1.363,6.521,1.19,9.247-0.383l16.386-9.461c1.416-0.817,2.17-1.858,2.244-2.861h0.005V338.296z"/>
			<path id="XMLID_116_" style="fill:#FFFFFF;" d="M362.151,343.984l-17.714-10.227c-2.36-1.363-2.062-3.765,0.664-5.339
				l16.386-9.461c2.725-1.573,6.886-1.746,9.247-0.383l17.714,10.227c2.36,1.363,2.061,3.765-0.664,5.339l-16.386,9.461
				C368.672,345.174,364.511,345.347,362.151,343.984z"/>
			<path id="XMLID_115_" style="fill:#FDCC6B;" d="M366.165,337.111c-0.169,0-0.293-0.012-0.373-0.023l-10.061-5.808l9.652-5.573
				c0.144-0.082,0.679-0.259,1.337-0.259c0.169,0,0.293,0.012,0.373,0.023l10.061,5.808l-9.652,5.573
				C367.357,336.933,366.823,337.111,366.165,337.111z"/>
		</g>
		<g id="XMLID_102_">
			<g id="XMLID_111_">
				<path id="XMLID_113_" style="fill:#FF865D;" d="M95.855,170.208l10.041-7.482c0.353-0.263,0.659-0.696,0.817-1.157l4.491-13.099
					c0.341-0.995,1.232-1.618,1.731-1.336l0.019,0.007c0.007,0.004,5.041,3.055,5.041,3.055c0.017,0.01,0.027,0.025,0.029,0.044
					c0.031,0.302,0.305,2.973,0.52,5.112c0.004,0.041,0.047,0.066,0.085,0.05l9.868-4.042c0.244-0.1,0.442-0.086,0.596-0.001
					l0.005-0.003l5.052,3.046c0.039,0.023,0.04,0.079,0.003,0.105l-1.757,1.181c-0.004,0.003-0.007,0.005-0.01,0.009l-10.8,11.363
					c-0.013,0.014-0.019,0.034-0.016,0.053l1.666,10.256c0.152,0.935-0.778,2.253-1.574,2.229l-8.981-0.267
					c-0.251-0.007-0.539,0.133-0.806,0.376l-1.632,4.965c0,0.001-0.001,0.002-0.001,0.003l-3.672,9.376
					c-0.014,0.036-0.057,0.05-0.09,0.031l-5.127-3.068c-0.191-0.153-0.294-0.448-0.236-0.875l1.715-12.538
					c0.06-0.441-0.056-0.788-0.312-0.928l-1.889-1.035l-0.348,0.006l-5.03-2.954C94.61,172.338,94.965,170.87,95.855,170.208z"/>
				<path id="XMLID_112_" style="fill:#FDCC6B;" d="M116.429,151.605l-4.491,13.099c-0.158,0.461-0.463,0.893-0.817,1.156
					l-10.041,7.482c-0.89,0.663-1.245,2.13-0.601,2.483l7.266,3.983c0.256,0.14,0.372,0.487,0.312,0.928l-1.715,12.538
					c-0.152,1.111,0.778,1.354,1.574,0.412l8.981-10.637c0.316-0.374,0.693-0.592,1.009-0.583l8.981,0.267
					c0.796,0.024,1.726-1.294,1.574-2.229l-1.715-10.557c-0.06-0.371,0.056-0.853,0.312-1.289l7.266-12.373
					c0.644-1.096,0.288-2.154-0.601-1.789l-10.041,4.113c-0.353,0.145-0.659,0.065-0.817-0.214l-4.491-7.914
					C117.976,149.781,116.827,150.445,116.429,151.605z"/>
			</g>
			<g id="XMLID_106_">
				<path id="XMLID_110_" style="fill:#FF865D;" d="M136.149,147.955l10.041-7.482c0.353-0.263,0.659-0.696,0.817-1.156
					l4.491-13.099c0.341-0.995,1.232-1.618,1.731-1.335l0.019,0.007c0.007,0.004,5.041,3.055,5.041,3.055
					c0.017,0.01,0.027,0.025,0.029,0.044c0.031,0.302,0.305,2.973,0.52,5.112c0.004,0.041,0.047,0.066,0.085,0.05l9.868-4.041
					c0.244-0.1,0.442-0.086,0.596-0.001l0.005-0.003l5.052,3.046c0.039,0.023,0.04,0.079,0.003,0.105l-1.757,1.181
					c-0.004,0.003-0.007,0.005-0.01,0.009l-10.8,11.363c-0.013,0.014-0.02,0.034-0.016,0.053l1.666,10.256
					c0.152,0.935-0.778,2.253-1.574,2.229l-8.981-0.267c-0.251-0.008-0.539,0.133-0.806,0.376l-1.632,4.965
					c0,0.001-0.001,0.002-0.001,0.003l-3.673,9.375c-0.014,0.036-0.057,0.05-0.09,0.031l-5.127-3.068
					c-0.191-0.153-0.294-0.448-0.236-0.874l1.715-12.538c0.06-0.441-0.056-0.788-0.312-0.928l-1.889-1.035l-0.348,0.006l-5.03-2.954
					C134.905,150.085,135.26,148.617,136.149,147.955z"/>
				<path id="XMLID_107_" style="fill:#FDCC6B;" d="M156.723,129.352l-4.491,13.099c-0.158,0.461-0.463,0.893-0.817,1.157
					l-10.041,7.482c-0.89,0.663-1.245,2.13-0.601,2.483l7.266,3.983c0.256,0.14,0.372,0.487,0.312,0.928l-1.715,12.538
					c-0.152,1.111,0.778,1.354,1.574,0.412l8.981-10.637c0.316-0.374,0.693-0.592,1.009-0.583l8.981,0.267
					c0.796,0.024,1.726-1.293,1.574-2.229l-1.715-10.557c-0.06-0.372,0.056-0.853,0.312-1.289l7.266-12.373
					c0.644-1.096,0.288-2.154-0.601-1.789l-10.041,4.113c-0.353,0.145-0.659,0.065-0.817-0.214l-4.491-7.914
					C158.271,127.528,157.121,128.191,156.723,129.352z"/>
			</g>
			<g id="XMLID_103_">
				<path id="XMLID_105_" style="fill:#FF865D;" d="M176.444,125.701l10.041-7.482c0.353-0.263,0.659-0.696,0.817-1.157
					l4.491-13.099c0.341-0.995,1.232-1.618,1.731-1.335l0.019,0.007c0.007,0.004,5.041,3.055,5.041,3.055
					c0.017,0.01,0.027,0.025,0.029,0.044c0.031,0.302,0.305,2.973,0.52,5.112c0.004,0.041,0.047,0.066,0.085,0.05l9.868-4.041
					c0.244-0.1,0.442-0.086,0.596-0.001l0.005-0.003l5.052,3.046c0.039,0.023,0.04,0.079,0.003,0.105l-1.757,1.181
					c-0.004,0.003-0.007,0.006-0.01,0.009l-10.8,11.363c-0.013,0.014-0.019,0.034-0.016,0.053l1.666,10.256
					c0.152,0.935-0.778,2.252-1.574,2.229l-8.981-0.267c-0.251-0.008-0.539,0.133-0.806,0.376l-1.632,4.965
					c0,0.001-0.001,0.002-0.001,0.003l-3.672,9.376c-0.014,0.036-0.057,0.05-0.09,0.031l-5.127-3.068
					c-0.192-0.153-0.294-0.448-0.236-0.874l1.715-12.538c0.06-0.441-0.056-0.788-0.312-0.928l-1.889-1.035l-0.348,0.006l-5.03-2.954
					C175.199,127.832,175.554,126.364,176.444,125.701z"/>
				<path id="XMLID_104_" style="fill:#FDCC6B;" d="M197.018,107.099l-4.491,13.099c-0.158,0.461-0.463,0.893-0.817,1.157
					l-10.041,7.482c-0.89,0.663-1.245,2.13-0.601,2.483l7.266,3.983c0.256,0.14,0.372,0.487,0.312,0.928l-1.715,12.538
					c-0.152,1.111,0.778,1.354,1.574,0.412l8.981-10.637c0.316-0.374,0.693-0.592,1.009-0.583l8.981,0.267
					c0.796,0.024,1.726-1.294,1.574-2.229l-1.715-10.557c-0.06-0.372,0.056-0.853,0.312-1.289l7.266-12.373
					c0.644-1.096,0.288-2.153-0.601-1.789l-10.041,4.113c-0.353,0.145-0.659,0.065-0.817-0.214l-4.491-7.914
					C198.565,105.275,197.416,105.938,197.018,107.099z"/>
			</g>
		</g>
		<g id="XMLID_82_">
			<path id="XMLID_101_" style="fill:#423EAD;" d="M399.399,241.227l-11.764,1.221l-80.089-46.24
				c-3.751-2.165-10.364-1.891-14.695,0.609l-117.123,67.621l-16.977,1.762v10.724l0.011-0.001c-0.019,1.4,0.802,2.739,2.52,3.73
				l89.323,51.571c3.751,2.166,10.364,1.891,14.695-0.609l130.515-75.353c2.263-1.306,3.462-2.972,3.567-4.574l0.018-0.002V241.227z
				"/>
			<path id="XMLID_100_" style="fill:#FFFFFF;" d="M250.604,321.6l-89.323-51.571c-3.751-2.166-3.276-5.983,1.055-8.484
				l130.515-75.353c4.331-2.501,10.944-2.775,14.695-0.609l89.323,51.571c3.751,2.166,3.276,5.983-1.055,8.484l-130.515,75.353
				C260.967,323.492,254.355,323.766,250.604,321.6z"/>
			<g id="XMLID_83_">
				<path id="XMLID_99_" style="fill:#D1CEF9;" d="M283.594,219.637l-4.457-2.573c-3.751-2.165-3.276-5.983,1.055-8.484l2.346-1.355
					c4.331-2.501,10.944-2.775,14.695-0.609l4.457,2.573c3.751,2.166,3.276,5.983-1.055,8.484l-2.346,1.355
					C293.957,221.528,287.345,221.802,283.594,219.637z"/>
				<path id="XMLID_98_" style="fill:#D1CEF9;" d="M254.943,236.178l-4.457-2.573c-3.751-2.166-3.276-5.983,1.055-8.484l2.346-1.355
					c4.331-2.501,10.944-2.775,14.695-0.609l4.457,2.573c3.751,2.166,3.276,5.983-1.055,8.484l-2.346,1.355
					C265.306,238.07,258.694,238.344,254.943,236.178z"/>
				<path id="XMLID_97_" style="fill:#D1CEF9;" d="M226.292,252.72l-4.457-2.573c-3.751-2.166-3.276-5.983,1.055-8.484l2.346-1.355
					c4.331-2.501,10.944-2.775,14.695-0.609l4.457,2.573c3.751,2.166,3.276,5.983-1.055,8.484l-2.346,1.355
					C236.656,254.611,230.043,254.885,226.292,252.72z"/>
				<path id="XMLID_96_" style="fill:#D1CEF9;" d="M197.641,269.261l-4.456-2.573c-3.751-2.166-3.276-5.983,1.055-8.484l2.346-1.355
					c4.331-2.501,10.944-2.775,14.695-0.609l4.457,2.573c3.751,2.166,3.276,5.983-1.055,8.484l-2.346,1.355
					C208.005,271.153,201.392,271.427,197.641,269.261z"/>
				<path id="XMLID_95_" style="fill:#D1CEF9;" d="M347.464,250.417l-40.483-23.373c-1.795-1.037-1.568-2.864,0.505-4.061l0,0
					c2.073-1.197,5.238-1.328,7.034-0.292l40.483,23.373c1.795,1.037,1.568,2.864-0.505,4.061l0,0
					C352.424,251.322,349.259,251.453,347.464,250.417z"/>
				<path id="XMLID_94_" style="fill:#D1CEF9;" d="M318.813,266.958l-40.483-23.373c-1.795-1.037-1.568-2.864,0.505-4.061l0,0
					c2.073-1.197,5.238-1.328,7.034-0.292l40.483,23.373c1.795,1.037,1.568,2.864-0.505,4.061l0,0
					C323.773,267.864,320.608,267.995,318.813,266.958z"/>
				<path id="XMLID_93_" style="fill:#D1CEF9;" d="M290.162,283.5l-40.483-23.373c-1.795-1.037-1.568-2.864,0.505-4.061l0,0
					c2.073-1.197,5.238-1.328,7.034-0.292l40.483,23.373c1.795,1.037,1.568,2.864-0.505,4.061l0,0
					C295.123,284.405,291.958,284.536,290.162,283.5z"/>
				<path id="XMLID_92_" style="fill:#D1CEF9;" d="M261.514,300.04l-40.483-23.373c-1.795-1.037-1.568-2.864,0.505-4.061l0,0
					c2.073-1.197,5.238-1.328,7.034-0.292l40.483,23.373c1.795,1.036,1.568,2.864-0.505,4.061l0,0
					C266.475,300.945,263.31,301.076,261.514,300.04z"/>
				<g id="XMLID_90_">
					<path id="XMLID_91_" style="fill:#918CE6;" d="M228.407,248.926c-0.625-0.361-1.012-0.86-1.012-1.41l0-3.987
						c-0.001-1.102,1.546-1.995,3.454-1.995c1.908,0,3.455,0.893,3.455,1.995l0.001,1.993h13.137c1.909,0,3.455,0.893,3.455,1.995
						c0.001,1.102-1.546,1.995-3.454,1.994l-16.592,0C229.896,249.51,229.032,249.287,228.407,248.926z"/>
				</g>
				<g id="XMLID_88_">
					<path id="XMLID_89_" style="fill:#918CE6;" d="M257.432,232.168c-0.625-0.361-1.012-0.86-1.011-1.41l0-3.988
						c-0.001-1.102,1.547-1.995,3.454-1.994c1.908,0,3.455,0.893,3.455,1.994l0.001,1.993h13.137c1.909,0,3.455,0.893,3.455,1.995
						c0.001,1.101-1.546,1.995-3.454,1.994l-16.592,0C258.921,232.752,258.057,232.529,257.432,232.168z"/>
				</g>
				<g id="XMLID_86_">
					<path id="XMLID_87_" style="fill:#918CE6;" d="M285.707,215.844c-0.648-0.374-1.012-0.881-1.012-1.41v-3.988
						c0-1.102,1.547-1.995,3.455-1.995c1.908,0,3.454,0.893,3.455,1.995l0,1.993l13.138,0c1.908,0.001,3.454,0.893,3.455,1.995
						c0,1.102-1.546,1.995-3.455,1.995l-16.592,0C287.233,216.428,286.355,216.218,285.707,215.844z"/>
				</g>
				<g id="XMLID_84_">
					<path id="XMLID_85_" style="fill:#918CE6;" d="M200.133,265.25c-0.625-0.361-1.012-0.86-1.011-1.41l0-3.987
						c-0.001-1.102,1.547-1.995,3.454-1.994c1.908,0,3.455,0.893,3.455,1.994l0.001,1.993h13.137c1.909,0,3.455,0.893,3.455,1.995
						c0.001,1.102-1.546,1.995-3.454,1.994l-16.592,0C201.622,265.834,200.758,265.611,200.133,265.25z"/>
				</g>
			</g>
		</g>
		<g id="XMLID_67_">
			<g id="XMLID_72_">
				<path id="XMLID_81_" style="fill:#423EAD;" d="M297.764,158.13c-0.589-2.094-1.027-4.624-2.907-5.709
					c-3.187-1.84-8.252,0.289-12.198-0.601c-3.7-0.835-7.199-5.001-11.117-5.001c-3.917,0-7.416,4.166-11.115,5.001
					c-3.945,0.891-9.01-1.239-12.198,0.601c-1.88,1.085-2.318,3.615-2.907,5.708l-7.306,0v8.848h0
					c0.001,2.609,4.345,4.036,6.27,6.453c1.523,1.911,1.215,6.528,3.942,8.103c3.187,1.84,8.252-0.289,12.198,0.602
					c3.7,0.835,7.199,5.001,11.117,5.001c3.917,0,7.416-4.166,11.115-5.001c3.945-0.891,9.01,1.239,12.198-0.601
					c2.727-1.575,2.419-6.191,3.942-8.103c1.926-2.417,6.27-3.843,6.27-6.453v-8.847H297.764z"/>
				<g id="XMLID_75_">
					<path id="XMLID_80_" style="fill:#FDCC6B;" d="M244.366,183.229c-0.574-2.751-1.148-5.503-1.723-8.254
						c-4.858-0.385-9.716-0.77-14.574-1.155c9.587-5.535,19.174-11.07,28.76-16.605l16.297,9.409L244.366,183.229z"/>
					<g id="XMLID_76_">
						<g id="XMLID_78_">
							<path id="XMLID_79_" style="fill:#6C65F3;" d="M294.857,172.685c-3.187,1.84-8.252-0.289-12.198,0.601
								c-3.699,0.835-7.198,5.001-11.115,5.001c-3.917,0-7.417-4.166-11.117-5.001c-3.946-0.891-9.011,1.239-12.198-0.602
								c-2.727-1.575-2.42-6.191-3.942-8.103c-1.926-2.417-6.27-3.844-6.27-6.454c0-2.609,4.345-4.036,6.27-6.453
								c1.523-1.911,1.215-6.528,3.942-8.103c3.187-1.84,8.252,0.289,12.198-0.601c3.699-0.835,7.198-5.001,11.115-5.001
								c3.917,0,7.417,4.166,11.117,5.001c3.946,0.891,9.011-1.239,12.198,0.601c2.727,1.575,2.419,6.191,3.942,8.103
								c1.926,2.417,6.27,3.844,6.27,6.454c0,2.609-4.345,4.036-6.27,6.453C297.277,166.494,297.585,171.111,294.857,172.685z"/>
						</g>
						<ellipse id="XMLID_77_" style="fill:#423EAD;" cx="271.544" cy="158.129" rx="22.678" ry="13.093"/>
					</g>
				</g>
				<polygon id="XMLID_74_" style="fill:#FF865D;" points="228.069,173.82 228.069,182.668 242.643,183.823 242.643,174.975 				"/>
				<polygon id="XMLID_73_" style="fill:#FF9672;" points="242.643,174.975 242.643,183.823 244.366,192.077 244.366,183.229 				
					"/>
			</g>
			<g id="XMLID_69_">
				
					<text id="XMLID_71_" transform="matrix(0.866 0.5 -0.866 0.5 263.0593 153.297)" style="fill:#FFFFFF; font-family:'Montserrat-ExtraBold'; font-size:11.2443px;">ISO</text>
				
					<text id="XMLID_70_" transform="matrix(0.866 0.5 -0.866 0.5 257.7377 157.178)" style="fill:#FFFFFF; font-family:'Montserrat-ExtraBold'; font-size:7.6286px;">9001</text>
			</g>
			<polygon id="XMLID_68_" style="fill:#FF865D;" points="261.201,173.509 261.201,182.357 244.366,192.077 244.366,183.229 			"/>
		</g>
		<g id="XMLID_62_">
			<path id="XMLID_66_" style="fill:#FF865D;" d="M431.949,247.732v44.696c0.007,0.027,0,0.06,0,0.087v0.053
				c-0.033,0.48-0.393,0.973-1.066,1.366l-7.808,4.504c-0.68,0.386-1.532,0.6-2.358,0.62c-0.766,0.02-1.506-0.127-2.045-0.44
				l-8.434-4.87c-0.54-0.313-0.786-0.74-0.753-1.179h-0.007v-44.802l4.543-0.007l4.337-2.498c1.299-0.753,3.278-0.833,4.404-0.187
				l4.61,2.665L431.949,247.732z"/>
			<path id="XMLID_65_" style="fill:#FDCC6B;" d="M431.949,247.759v44.669c0.007,0.027,0,0.06,0,0.087v0.053
				c-0.033,0.48-0.393,0.973-1.066,1.366l-7.808,4.504c-0.68,0.386-1.532,0.6-2.358,0.62v-51.298H431.949z"/>
			<path id="XMLID_64_" style="fill:#FAD792;" d="M418.673,253.811l-8.436-4.87c-1.124-0.649-0.982-1.793,0.316-2.542l7.803-4.505
				c1.298-0.749,3.28-0.831,4.404-0.183l8.436,4.871c1.124,0.649,0.982,1.793-0.316,2.542l-7.803,4.505
				C421.778,254.378,419.797,254.46,418.673,253.811z"/>
			<path id="XMLID_63_" style="fill:#FF865D;" d="M420.584,250.707c-0.108,0-0.188-0.01-0.234-0.018l-5.072-2.928l4.85-2.8
				c0.104-0.061,0.398-0.146,0.722-0.146c0.108,0,0.188,0.01,0.235,0.018l5.071,2.928l-4.85,2.8
				C421.222,250.609,420.938,250.707,420.584,250.707z"/>
		</g>
		<g id="XMLID_57_">
			<path id="XMLID_61_" style="fill:#FF865D;" d="M402.502,265.24v27.188c0.007,0.027,0.007,0.06,0,0.087v0.053
				c-0.033,0.48-0.393,0.973-1.066,1.366l-7.808,4.504c-0.673,0.386-1.532,0.6-2.358,0.62c-0.766,0.02-1.506-0.127-2.045-0.44
				l-8.434-4.87c-0.54-0.313-0.786-0.74-0.753-1.179h-0.007v-27.295l4.544-0.007l4.337-2.505c1.299-0.746,3.278-0.826,4.404-0.18
				l3.724,2.152l0.893,0.513L402.502,265.24z"/>
			<path id="XMLID_60_" style="fill:#FDCC6B;" d="M402.502,265.24v27.188c0.007,0.027,0.007,0.06,0,0.087v0.053
				c-0.033,0.48-0.393,0.973-1.066,1.366l-7.808,4.504c-0.673,0.386-1.532,0.6-2.358,0.62v-33.79l5.769-0.533l0.893,0.513
				L402.502,265.24z"/>
			<path id="XMLID_59_" style="fill:#FAD792;" d="M389.228,271.318l-8.436-4.87c-1.124-0.649-0.982-1.793,0.316-2.542l7.803-4.505
				c1.298-0.749,3.28-0.832,4.404-0.182l8.436,4.87c1.124,0.649,0.982,1.793-0.316,2.542l-7.804,4.505
				C392.333,271.884,390.352,271.967,389.228,271.318z"/>
			<path id="XMLID_58_" style="fill:#FF865D;" d="M391.138,268.214c-0.108,0-0.189-0.01-0.235-0.018l-5.071-2.928l4.85-2.8
				c0.105-0.061,0.398-0.146,0.721-0.146c0.109,0,0.189,0.01,0.235,0.018l5.071,2.928l-4.85,2.8
				C391.756,268.128,391.462,268.214,391.138,268.214z"/>
		</g>
		<g id="XMLID_44_">
			<polygon id="XMLID_56_" style="fill:#FAD792;" points="208.868,183.928 217.756,178.798 226.48,183.832 230.839,195.069 
				226.48,201.26 217.592,206.391 221.952,200.195 217.592,188.962 			"/>
			<g id="XMLID_54_">
				<polygon id="XMLID_55_" style="fill:#FDCC6B;" points="230.839,195.069 221.952,200.195 217.592,188.962 226.48,183.832 				"/>
			</g>
			<polygon id="XMLID_53_" style="fill:#FF865D;" points="226.48,201.26 217.592,206.391 221.952,200.195 230.839,195.069 			"/>
			<polygon id="XMLID_52_" style="fill:#918CE6;" points="147.098,219.591 208.868,183.928 217.592,188.962 221.952,200.195 
				217.592,206.391 155.819,242.055 160.183,235.862 155.819,224.63 			"/>
			<polygon id="XMLID_51_" style="fill:#6C65F3;" points="160.183,235.862 221.952,200.195 217.592,188.962 155.819,224.63 			"/>
			<polygon id="XMLID_50_" style="fill:#423EAD;" points="155.819,242.055 217.592,206.391 221.952,200.195 160.183,235.862 			"/>
			<polygon id="XMLID_49_" style="fill:#FFFFFF;" points="135.561,235.671 147.098,219.591 155.819,224.63 160.183,235.862 
				155.819,242.055 138.305,242.746 139.68,240.799 138.305,237.26 			"/>
			<g id="XMLID_47_">
				<polygon id="XMLID_48_" style="fill:#FFFFFF;" points="139.68,240.799 160.183,235.862 155.819,224.63 138.305,237.26 				"/>
			</g>
			<polygon id="XMLID_46_" style="fill:#B1ACFA;" points="138.305,242.746 155.819,242.055 160.183,235.862 139.68,240.799 			"/>
			<polygon id="XMLID_45_" style="fill:#423EAD;" points="129.842,241.85 129.383,242.505 129.845,243.692 130.768,244.222 
				138.305,242.746 139.68,240.799 138.305,237.26 135.561,235.671 			"/>
		</g>
		<g id="XMLID_17_">
			<g id="XMLID_38_">
				<path id="XMLID_43_" style="fill:#FFFFFF;" d="M119.154,257.492l10.74-13.244l-21.167-6.585
					c-2.979,4.207-5.958,8.414-8.937,12.622C106.245,252.688,112.7,255.09,119.154,257.492z"/>
				<g id="XMLID_40_">
					<path id="XMLID_42_" style="fill:#FDAD75;" d="M119.939,257.041l0.847-1.526l1.629-2.933c0.047-0.022,0.092-0.045,0.137-0.07
						c0.087-0.044,0.174-0.091,0.258-0.138c0.884-0.493,1.667-1.133,2.49-1.824l1.182-1.142c0.194,0.114,0.381,0.23,0.605,0.337
						c0.654,0.513,0.292,1.029,0.162,1.508c-0.029,0.17,0.059,0.316,0.149,0.501c0.077,0.158,0.154,0.343,0.162,0.576
						c0.007,0.209-0.119,0.446-0.214,0.667c-0.053,0.119-0.095,0.234-0.103,0.336c-0.006,0.085,0.024,0.146,0.056,0.226
						c0.04,0.099,0.083,0.224,0.061,0.453c-0.004,0.044-0.025,0.101-0.053,0.167c-0.101,0.231-0.31,0.558-0.292,0.712
						c0.006,0.054,0.008,0.105,0.01,0.156c0.017,0.441-0.107,0.773-0.4,1.077c-1.219,1.521-3.105,2.789-4.845,4.218l-1.571-1.847
						l-0.65-0.765L119.939,257.041z"/>
					<path id="XMLID_41_" style="fill:#FDAD75;" d="M120.928,258.837l-0.533-0.721l-0.462-0.624c0.004-0.149,0.007-0.3,0.006-0.451
						c0.004-1.193-0.107-2.424-0.333-3.609c-0.035-0.187-0.107-0.658,0.013-1.089c0.256-0.915,0.09-1.627-0.116-2.378
						c-0.131-0.307-0.02-0.923,0.535-1.039c0.049-0.01,0.096-0.014,0.14-0.013c0.468,0.011,0.754,0.608,0.942,1.344
						c0.066,0.259,0.12,0.531,0.165,0.801c0.313,0.745,0.88,1.118,1.525,1.318c0.184,0.057,0.377,0.1,0.57,0.133
						c0.215,0.038,0.436,0.064,0.653,0.084l-2.009,4.041L120.928,258.837z"/>
				</g>
				<path id="XMLID_39_" style="fill:#FDAD75;" d="M126.838,255.842l1.781-4.176l0.449-3.378c0.006-0.625-0.409-0.722-0.95-0.66
					c-0.736,0.396-1.267,1.004-1.636,1.781l-1.874,2.705l1.089,3.853L126.838,255.842z"/>
			</g>
			<g id="XMLID_18_">
				<g id="XMLID_30_">
					<path id="XMLID_37_" style="fill:#423EAD;" d="M111.317,355.059c-3.748,2.243-6.917,3.868-9.832,4.862
						c-1.37,0.416-2.471,0.524-3.304,0.403c-1.182-0.175-1.854-0.833-2.028-1.76c-0.336-2.35,0-4.19,0.551-6.554v-4.97l3.439-0.403
						l4.245-0.51l-0.121,3.224l-0.04,0.9l3.035,0.201l1.558-0.161c1.007-0.108,2.042,0.255,2.673,1.048
						C112.58,352.709,112.11,354.522,111.317,355.059z"/>
					<path id="XMLID_36_" style="fill:#423EAD;" d="M95.25,345.952c-3.748,2.243-6.917,3.868-9.832,4.862
						c-1.37,0.416-2.472,0.524-3.304,0.403c-1.182-0.175-1.853-0.833-2.028-1.76c-0.336-2.351,0-4.191,0.551-6.554v-4.97
						l3.439-0.403l4.244-0.511l-0.121,3.224l-0.04,0.9l3.035,0.202l1.558-0.161c1.007-0.108,2.041,0.255,2.673,1.048
						C96.513,343.601,96.043,345.414,95.25,345.952z"/>
					<path id="XMLID_35_" style="fill:#6C65F3;" d="M81.102,273.557l1.219,30.529c-1.435,10.93-3.841,20.964-2.15,37.961
						c0.413,3.12,9.404,2.314,10.367-1.285c0.778-9.75,3.401-22.181,3.642-36.233c-0.419-6.477,0.669-19.54-0.352-24.267
						C93.828,280.262,86.734,280.08,81.102,273.557z"/>
					<path id="XMLID_34_" style="fill:#6C65F3;" d="M89.772,292.632l5.307,23.321c-1.435,10.93-0.75,18.346,0.941,35.344
						c0.413,3.12,10.385,2.411,10.385-1.482c0.098-9.348,1.12-22.196,1.362-36.247c-0.419-6.477-2.088-30.963-3.108-35.69
						c-0.95-8.08-23.743-12.39-23.928-4.415C80.267,283.259,82.157,288.418,89.772,292.632z"/>
				</g>
				<g id="XMLID_20_">
					<g id="XMLID_25_">
						<g id="XMLID_27_">
							<g id="XMLID_28_">
								<path id="XMLID_29_" style="fill:#D1CEF9;" d="M79.584,276.285c0.111-3.883,0.922-30.192,4.107-39.43
									c1.405-4.075,3.296-4.897,3.94-5.118c2.555-0.876,5.253,0.906,6.095,1.509c4.452,2.124,8.012,2.984,10.98,4.555
									c0.363,0.197,0.718,0.395,1.066,0.616c0.505,1.571,0.797,5.36,1.05,9.102c0.071,1.215,0.142,2.431,0.213,3.552
									c0.04,0.56,0.079,1.105,0.111,1.626c0.01,0.161,0.02,0.282,0.023,0.319c0,0.007,0.001,0.012,0.001,0.012
									c0.01,0.123,0.101,12.056,0.238,30.594c-2.982,0.565-8.81,1.252-15.662-0.765C85.886,281.131,81.812,278.174,79.584,276.285
									z"/>
							</g>
						</g>
						<path id="XMLID_26_" style="fill:#D1CEF9;" d="M88.579,232.053c-2.393,2.158-2.415,4.33,1.931,6.525
							c3.95,1.1,7.17,0.797,10.536-2.367l-2.899-1.435L88.579,232.053z"/>
					</g>
					<g id="XMLID_21_">
						<path id="XMLID_24_" style="fill:#FDAD75;" d="M88.579,229.397v3.752c0.104,1.387,1.913,2.911,4.295,3.133
							c2.32,0.192,4.365-0.709,5.273-1.506l0.021-1.728l0.675-0.266c1.421-0.693,1.786-1.36,1.994-5.069
							c0.129-2.298,0.103-3.545,0.323-4.802c0.132-0.751,0.033-1.381,0.001-2.04c-0.128-2.582-2.488-6.861-7.452-6.369
							c-4.793,0.475-7.486,3.25-7.486,7.686C86.263,225.087,86.855,227.572,88.579,229.397z"/>
						<path id="XMLID_23_" style="fill:#423EAD;" d="M88.579,231.061c2.01,1.345,4.101,1.853,6.295,1.282
							c1.778-0.724,1.851-4.165,1.976-7.521l0.987-0.523c-0.069-0.14-0.709-1.5,0.01-2.846c0.588-1.101,1.845-1.741,3.164-1.599
							c-0.307-2.367-1.295-3.592-1.91-4.181c-3.408-3.263-11.646-2.557-14.417,2.746C82.615,222.38,84.065,228.005,88.579,231.061z"
							/>
						<path id="XMLID_22_" style="fill:#FDAD75;" d="M96.942,224.235c-0.43-1.701-2.606-0.645-1.808,2.606
							c0.33,1.285,0.94,2.241,1.837,1.039C96.971,227.658,96.976,224.348,96.942,224.235z"/>
					</g>
				</g>
				<path id="XMLID_19_" style="fill:#D1CEF9;" d="M122.251,263.377c-0.828,0.793-3.372,3.022-7.291,3.41
					c-5.739,0.569-9.644-3.283-10.172-3.822c-2.566-4.467-4.312-8.365-5.489-11.317c-1.009-2.53-1.771-4.799-1.331-7.556
					c0.188-1.175,0.516-3.058,2.117-4.468c2.127-1.875,4.922-1.524,5.447-1.449c1.902,5.291,3.803,10.582,5.705,15.873
					c2.773,1.227,5.547,2.454,8.32,3.681c0.411,0.39,0.864,0.894,1.283,1.532C121.884,260.852,122.166,262.436,122.251,263.377z"/>
			</g>
		</g>
		<g id="XMLID_10_">
			<g id="XMLID_14_">
				<path id="XMLID_16_" style="fill:#423EAD;" d="M437.773,154.393L331.738,92.822c-2.519-1.454-4.79-1.308-6.381,0.076
					l-0.007-0.011l-10.475,5.747l8.171,14.429v25.988c0,6.373,3.911,13.845,8.69,16.604l91.927,53.426l8.45,14.92l10.798-6.069
					l-0.007-0.012c2.15-0.874,3.557-3.45,3.557-7.265l0-39.659C446.463,164.625,442.553,157.153,437.773,154.393z"/>
				<path id="XMLID_15_" style="fill:#6C65F3;" d="M435.371,177.199v39.655c0,6.38-3.909,9.336-8.689,6.578l-24.415-14.18v9.148
					l-7.692-13.614l-73.927-42.926c-4.78-2.768-8.689-10.235-8.689-16.606V105.59c0-6.371,3.909-9.327,8.689-6.569l106.034,61.571
					C431.463,163.352,435.371,170.828,435.371,177.199z"/>
			</g>
			<g id="XMLID_12_">
				
					<text transform="matrix(0.866 0.5 1.000000e-05 1 323.1411 138.6284)" style="fill:#FFFFFF; font-family:'Montserrat-ExtraBold'; font-size:15.9741px; letter-spacing:3;">CERTIFIED</text>
			</g>
			<path id="XMLID_11_" style="fill:#423EAD;" d="M402.266,209.249v9.149c2.634-1.52,5.268-3.041,7.902-4.561
				C407.534,212.308,404.9,210.778,402.266,209.249z"/>
		</g>
	</g>
</g>
</svg>
